<svg width="25" height="24" viewBox="0 0 25 24" fill="none" xmlns="http://www.w3.org/2000/svg">
<path d="M12.412 7.9983C10.1323 7.9983 8.27182 9.79651 8.27182 12C8.27182 14.2035 10.1323 16.0017 12.412 16.0017C14.6917 16.0017 16.5522 14.2035 16.5522 12C16.5522 9.79651 14.6917 7.9983 12.412 7.9983ZM24.8294 12C24.8294 10.3429 24.8449 8.70077 24.7486 7.04665C24.6524 5.12536 24.1989 3.4202 22.7453 2.01525C21.2887 0.607302 19.5276 0.172009 17.5398 0.0789456C15.8254 -0.0141172 14.1264 0.000892936 12.4151 0.000892936C10.7006 0.000892936 9.00171 -0.0141172 7.29036 0.0789456C5.30258 0.172009 3.53843 0.610305 2.08486 2.01525C0.628194 3.42321 0.177838 5.12536 0.0815552 7.04665C-0.0147278 8.70377 0.000801763 10.3459 0.000801763 12C0.000801763 13.6541 -0.0147278 15.2992 0.0815552 16.9533C0.177838 18.8746 0.6313 20.5798 2.08486 21.9847C3.54153 23.3927 5.30258 23.828 7.29036 23.9211C9.00482 24.0141 10.7037 23.9991 12.4151 23.9991C14.1296 23.9991 15.8285 24.0141 17.5398 23.9211C19.5276 23.828 21.2918 23.3897 22.7453 21.9847C24.202 20.5768 24.6524 18.8746 24.7486 16.9533C24.848 15.2992 24.8294 13.6571 24.8294 12ZM12.412 18.1572C8.88679 18.1572 6.04178 15.4073 6.04178 12C6.04178 8.5927 8.88679 5.84284 12.412 5.84284C15.9372 5.84284 18.7822 8.5927 18.7822 12C18.7822 15.4073 15.9372 18.1572 12.412 18.1572ZM19.0431 7.02864C18.22 7.02864 17.5554 6.38621 17.5554 5.59067C17.5554 4.79513 18.22 4.1527 19.0431 4.1527C19.8662 4.1527 20.5308 4.79513 20.5308 5.59067C20.5311 5.77957 20.4928 5.96667 20.4181 6.14124C20.3434 6.31581 20.2338 6.47442 20.0956 6.608C19.9574 6.74157 19.7933 6.84748 19.6127 6.91967C19.4321 6.99185 19.2385 7.02888 19.0431 7.02864Z" fill="#85A3B4"/>
</svg>
