<svg width="24" height="24" viewBox="0 0 24 24" fill="none" xmlns="http://www.w3.org/2000/svg">
<path d="M22.6798 1.32019C21.7993 0.439662 20.7398 0 19.5001 0H4.49992C3.26022 0 2.20071 0.439662 1.32019 1.32019C0.439662 2.20071 0 3.26022 0 4.49992V19.5001C0 20.7398 0.439662 21.7993 1.32019 22.6798C2.20071 23.5603 3.26022 24 4.49992 24H8.0004C8.22864 24 8.40042 23.9916 8.51574 23.976C8.64991 23.9491 8.77101 23.8775 8.8593 23.773C8.97342 23.6528 9.03108 23.4787 9.03108 23.2504L9.02267 22.1873C9.01787 21.5098 9.01547 20.974 9.01547 20.5776L8.65509 20.6401C8.42685 20.6821 8.13855 20.7001 7.78898 20.6953C7.42462 20.6886 7.06143 20.652 6.70304 20.586C6.32152 20.5156 5.96237 20.3549 5.65554 20.1175C5.33419 19.8744 5.09452 19.5392 4.96842 19.1565L4.81225 18.7961C4.68063 18.5119 4.51527 18.2445 4.31974 17.9997C4.0963 17.7078 3.86926 17.5108 3.63982 17.4063L3.53171 17.3282C3.45632 17.2742 3.38775 17.2113 3.32749 17.1408C3.26994 17.0754 3.22256 17.0017 3.18695 16.9222C3.15571 16.8489 3.18214 16.7888 3.26503 16.742C3.34912 16.6939 3.49927 16.6711 3.7191 16.6711L4.03143 16.7192C4.23925 16.76 4.49752 16.8849 4.80384 17.0927C5.11384 17.3041 5.3728 17.5819 5.56184 17.906C5.80209 18.3324 6.09039 18.658 6.42915 18.8826C6.76791 19.1061 7.10906 19.219 7.45262 19.219C7.79619 19.219 8.0929 19.1926 8.34396 19.1409C8.58675 19.0907 8.82267 19.0117 9.0467 18.9055C9.1404 18.2087 9.39506 17.6706 9.8119 17.2958C9.27179 17.2428 8.73648 17.1488 8.21062 17.0147C7.69743 16.8737 7.20389 16.6691 6.74148 16.4056C6.25766 16.1422 5.83033 15.7863 5.48376 15.3581C5.15101 14.9413 4.87712 14.3947 4.6633 13.7184C4.45067 13.0409 4.34376 12.2589 4.34376 11.3735C4.34376 10.1134 4.75459 9.04069 5.57746 8.15416C5.19305 7.20757 5.22909 6.14445 5.68677 4.96842C5.98949 4.87352 6.43756 4.94439 7.03098 5.17864C7.62441 5.41288 8.05926 5.61349 8.33555 5.77927C8.61184 5.94744 8.83287 6.08799 8.99985 6.20211C9.97645 5.93033 10.9857 5.79372 11.9994 5.79609C13.0313 5.79609 14.0307 5.93183 15.0001 6.20211L15.5936 5.82732C16.05 5.55325 16.5315 5.32318 17.0315 5.1402C17.5841 4.93118 18.0045 4.87472 18.2976 4.96842C18.7661 6.14565 18.8069 7.20757 18.4213 8.15536C19.2442 9.04069 19.6562 10.1134 19.6562 11.3747C19.6562 12.2601 19.5493 13.0445 19.3355 13.7256C19.1229 14.4079 18.8466 14.9545 18.5078 15.3665C18.1552 15.7892 17.726 16.1417 17.2429 16.4056C16.7384 16.6867 16.2483 16.8897 15.7738 17.0147C15.2479 17.1493 14.7126 17.2436 14.1725 17.297C14.713 17.7655 14.9845 18.5042 14.9845 19.5145V23.2504C14.9845 23.427 15.0098 23.5699 15.0626 23.6793C15.0869 23.7319 15.1216 23.7792 15.1645 23.8182C15.2074 23.8572 15.2577 23.8871 15.3125 23.9063C15.4278 23.9471 15.5287 23.9736 15.6176 23.9832C15.7065 23.9952 15.8338 23.9988 15.9996 23.9988H19.5001C20.7398 23.9988 21.7993 23.5591 22.6798 22.6786C23.5591 21.7993 24 20.7386 24 19.4989V4.49992C24 3.26022 23.5591 2.20071 22.6786 1.32019H22.6798Z" fill="#85A3B4"/>
</svg>
