<svg width="22" height="22" viewBox="0 0 22 22" fill="none" xmlns="http://www.w3.org/2000/svg">
<path d="M12.5126 22H10.4042V18.8375H12.5126V22ZM18.1671 19.6577L15.9312 17.4218L17.4218 15.9312L19.6588 18.1681L18.1692 19.6577H18.1671ZM4.7497 19.6577L3.25911 18.1671L5.49394 15.9301L6.98559 17.4207L4.75075 19.6566V19.6577H4.7497ZM11.4584 16.7366C10.0585 16.736 8.71623 16.1794 7.72677 15.1891C6.73731 14.1989 6.18175 12.8561 6.18231 11.4562C6.18287 10.0564 6.7395 8.71406 7.72975 7.7246C8.72001 6.73514 10.0628 6.17958 11.4626 6.18014C12.1558 6.18042 12.8421 6.31722 13.4824 6.58273C14.1226 6.84824 14.7043 7.23726 15.1943 7.72759C15.6842 8.21791 16.0728 8.79993 16.3378 9.44042C16.6028 10.0809 16.739 10.7673 16.7387 11.4605C16.7385 12.1536 16.6017 12.8399 16.3361 13.4802C16.0706 14.1205 15.6816 14.7022 15.1913 15.1921C14.701 15.682 14.1189 16.0706 13.4785 16.3356C12.838 16.6006 12.1516 16.7368 11.4584 16.7366ZM11.4584 8.28848C11.0421 8.28875 10.63 8.37102 10.2455 8.53057C9.86103 8.69013 9.51174 8.92385 9.21759 9.2184C8.92343 9.51295 8.69017 9.86255 8.53113 10.2472C8.37208 10.6319 8.29037 11.0442 8.29064 11.4605C8.29092 11.8767 8.37319 12.2889 8.53274 12.6734C8.6923 13.0578 8.92602 13.4071 9.22057 13.7013C9.51512 13.9954 9.86472 14.2287 10.2494 14.3877C10.6341 14.5468 11.0464 14.6285 11.4626 14.6282C12.3033 14.6277 13.1094 14.2932 13.7035 13.6983C14.2975 13.1034 14.631 12.2969 14.6304 11.4562C14.6298 10.6155 14.2953 9.80949 13.7005 9.21542C13.1056 8.62135 12.2991 8.28792 11.4584 8.28848ZM22.0001 12.5125H18.8376V10.4042H22.0001V12.5125ZM4.07925 12.5125H0.916748V10.4042H4.07925V12.5125ZM17.4208 6.98658L15.9312 5.49493L18.1671 3.25799L19.6588 4.74964L17.4218 6.98552L17.4208 6.98658ZM5.49499 6.98658L3.26016 4.75069L4.75181 3.2601L6.98664 5.49704L5.49605 6.98552V6.98658H5.49499ZM12.5126 4.07919H10.4042V0.916687H12.5126V4.07919Z" fill="#85A3B4"/>
</svg>
