<svg width="25" height="24" viewBox="0 0 25 24" fill="none" xmlns="http://www.w3.org/2000/svg">
<path fill-rule="evenodd" clip-rule="evenodd" d="M3.07067e-07 2.00509C3.07067e-07 1.47331 0.218564 0.963308 0.60761 0.58728C0.996656 0.211253 1.52431 2.67307e-06 2.07451 2.67307e-06H22.7541C23.0268 -0.000427747 23.2969 0.0511258 23.5489 0.151712C23.8009 0.252298 24.0299 0.399941 24.2228 0.586188C24.4157 0.772435 24.5687 0.993628 24.6731 1.2371C24.7774 1.48058 24.831 1.74156 24.8309 2.00509V21.9927C24.8312 22.2563 24.7777 22.5174 24.6735 22.761C24.5693 23.0046 24.4165 23.2259 24.2237 23.4123C24.0309 23.5988 23.802 23.7466 23.55 23.8475C23.298 23.9483 23.028 24.0001 22.7553 24H2.07451C1.80199 24 1.53213 23.9481 1.28037 23.8473C1.0286 23.7464 0.799861 23.5986 0.607211 23.4123C0.41456 23.226 0.261776 23.0049 0.157589 22.7615C0.0534014 22.5181 -0.000147965 22.2572 3.07067e-07 21.9938V2.00509ZM9.82852 9.15055H13.1909V10.7825C13.6762 9.84437 14.9177 9 16.7834 9C20.3602 9 21.2078 10.8687 21.2078 14.2975V20.6487H17.5882V15.0785C17.5882 13.1258 17.1028 12.024 15.8703 12.024C14.1604 12.024 13.4493 13.212 13.4493 15.0785V20.6487H9.82852V9.15055ZM3.6208 20.4993H7.24159V9H3.6208V20.4982V20.4993ZM7.75966 5.24946C7.76648 5.5491 7.71132 5.84704 7.5974 6.1258C7.48348 6.40456 7.3131 6.65851 7.09625 6.87276C6.87941 7.08702 6.62048 7.25725 6.33465 7.37346C6.04882 7.48968 5.74185 7.54955 5.43176 7.54955C5.12167 7.54955 4.8147 7.48968 4.52887 7.37346C4.24304 7.25725 3.9841 7.08702 3.76726 6.87276C3.55042 6.65851 3.38004 6.40456 3.26612 6.1258C3.1522 5.84704 3.09704 5.5491 3.10386 5.24946C3.11726 4.6613 3.36841 4.10159 3.80351 3.69021C4.23862 3.27882 4.82309 3.04846 5.43176 3.04846C6.04043 3.04846 6.6249 3.27882 7.06001 3.69021C7.49511 4.10159 7.74626 4.6613 7.75966 5.24946Z" fill="#85A3B4"/>
</svg>
