<svg width="25" height="24" viewBox="0 0 25 24" fill="none" xmlns="http://www.w3.org/2000/svg">
<path d="M22.1704 0H2.66045C1.19166 0 0 1.15179 0 2.57143V21.4286C0 22.8482 1.19166 24 2.66045 24H22.1704C23.6392 24 24.8309 22.8482 24.8309 21.4286V2.57143C24.8309 1.15179 23.6392 0 22.1704 0ZM19.4601 8.50714C19.4712 8.65714 19.4712 8.8125 19.4712 8.9625C19.4712 13.6071 15.8131 18.9589 9.12868 18.9589C7.06683 18.9589 5.15463 18.3804 3.54727 17.3839C3.84103 17.4161 4.1237 17.4268 4.423 17.4268C6.12459 17.4268 7.6876 16.8696 8.93469 15.9268C7.33842 15.8946 5.99711 14.8821 5.53707 13.4893C6.09687 13.5696 6.60125 13.5696 7.17768 13.425C5.5149 13.0982 4.26781 11.6839 4.26781 9.975V9.93214C4.75002 10.1946 5.31536 10.3554 5.90842 10.3768C5.40983 10.0562 5.00109 9.62136 4.71869 9.11098C4.43628 8.60059 4.289 8.03057 4.28998 7.45179C4.28998 6.79821 4.46734 6.19821 4.78327 5.67857C6.57354 7.81071 9.2617 9.20357 12.2769 9.35357C11.7614 6.96964 13.6071 5.03571 15.8242 5.03571C16.8717 5.03571 17.814 5.45893 18.4791 6.14464C19.2994 5.99464 20.0864 5.7 20.7848 5.29821C20.5132 6.1125 19.9423 6.79821 19.1885 7.23214C19.9201 7.15714 20.6296 6.95893 21.2836 6.68571C20.7903 7.3875 20.1696 8.00893 19.4601 8.50714Z" fill="#85A3B4"/>
</svg>
