<?xml version="1.0" encoding="utf-8"?>
<!-- Generator: Adobe Illustrator 18.1.1, SVG Export Plug-In . SVG Version: 6.00 Build 0)  -->
<svg version="1.1" xmlns="http://www.w3.org/2000/svg" xmlns:xlink="http://www.w3.org/1999/xlink" x="0px" y="0px"
	 viewBox="0 0 612 792" enable-background="new 0 0 612 792" xml:space="preserve">
<g id="Layer_1" display="none">
	<g id="LOGO_1" display="inline">
		<g>
			<polygon fill-rule="evenodd" clip-rule="evenodd" fill="#FDB92E" points="480.7,354.2 318.8,354.4 280.7,376.6 280.8,417.8 
				318.8,395.6 436.3,395.4 436.4,437.2 319,500 195.1,436.8 194.9,281.8 317.9,225.9 436.1,281.5 436.2,316.3 480.6,300.5 
				480.6,262.5 318.6,180.4 150.5,262.9 150.7,455.9 319,547.4 480.8,454.6 			"/>
		</g>
	</g>
</g>
<g id="Layer_2">
	<g display="none">
		<polygon display="inline" fill="#BF826A" points="297.6,395.7 280.2,425.8 255.7,383.7 273.2,353.5 461.6,353.5 437.2,395.7 		"/>
	</g>
	<path display="none" fill-rule="evenodd" clip-rule="evenodd" fill="#F07941" d="M298.3,167.7l-163.1,94.2v188.4l163.1,94.2
		l163.1-94.2V261.9L298.3,167.7z M419.2,425.9l-120.9,69.8l-120.9-69.8V286.3l120.9-69.8l120.9,69.8V425.9z"/>
	<g>
		<polygon display="none" fill="#F07941" points="504,356.2 546.2,356.2 546.2,300.4 504,324.7 		"/>
		<polygon fill="#F47C20" points="461.6,297.7 461.6,261.9 298.6,167.9 298.6,167.9 298.4,167.7 135.3,261.9 135.3,450.3 
			298.4,544.5 461.6,450.3 461.6,353.5 419.3,353.5 273.2,353.5 255.7,383.7 280.2,425.8 297.6,395.7 419.3,395.7 419.3,425.9 
			298.4,495.7 177.5,425.9 177.5,286.3 298.3,216.6 298.3,216.6 419.3,286.3 419.3,322 		"/>
	</g>
</g>
</svg>
